<?xml version="1.0" encoding="utf-8"?>
<!-- Generator: Adobe Illustrator 24.0.1, SVG Export Plug-In . SVG Version: 6.00 Build 0)  -->
<svg version="1.1" id="Шар_1" xmlns="http://www.w3.org/2000/svg" xmlns:xlink="http://www.w3.org/1999/xlink" x="0px" y="0px"
	 viewBox="0 0 1172.2 1036.8" style="enable-background:new 0 0 1172.2 1036.8;" xml:space="preserve">
<style type="text/css">
	.st0{fill:#BABABA;stroke:#FFFFFF;stroke-miterlimit:10;}
	.st1{fill:none;stroke:#FFFFFF;stroke-miterlimit:10;}
	.st2{fill:none;stroke:#FFFFFF;stroke-width:4;stroke-miterlimit:10;}
	.st3{fill:none;stroke:#FFFFFF;stroke-width:2;stroke-miterlimit:10;}
</style>
<path class="st0" d="M241,538.6c0,0-3.3-11-8-8.7s-8.7,1-8.7,1s-7.3,1.3-7.7,17.3c-0.3,16-15,33.3-15,33.3s-1,4.3,19.3,19.3
	l0.3,13.3l25,19.3c0,0,0.3,8.3-7.7,8s-27.7,2-35-6.3s-9-10-9-10s-7.7-0.3-11.3,0.7s-16.5-11.2-16.5-11.2s-24-1.3-36.3-26
	c0,0-14-9-19.7-19c0,0-20.7-15.3-25.7-14.7c0,0-11.7,13.7-27.7,5.3c0,0-25-5-31-18.3c0,0-12.7-24.4-23.3-26.7v52.4
	c0,0,10.3,9.3,11,16.7c0.7,7.3,10.3,14.3,19.7,13.3c0,0,21,16.3,36.7,35.3c0,0,1.3,8.3,43,19.3c0,0,17,3.3,29.7,19.3
	c0,0,3.7,12.7,12.7,12s22,8.3,22,8.3l38,30.7c0,0,34.3,37.3,34.3,44.3s2.3,16.7,11,14.7s15.7-6.3,15.7-6.3s12.7-2,18.7,4.3
	s12.3,10,15.7,6.7c3.3-3.3,16.3-11.3,19-11s7.7,3.3,9.3,6.3s11.3-0.7,11.3-0.7l7.7,6.6c0,0-3,6.7-2.7,8.7s4.3,11,1.3,15
	s-30,20-30,20s29.7-15.3,36-12.3s11.3,1,12.7,9c1.3,8,10,11,10,7s-12.7-20.3-11-25.3s5.7-6.7,6.3-16c0.7-9.3,8,0.3,8,0.3
	s0.7,5,29,3.7c0,0,5.3,10.7,8,10.7s12.7-1,11.3,4.7s-5,5-8.7,6.7c0,0,4.7,9.3-2.3,13.7c-7,4.3-1,6.3-1,6.3s8.3,3.9,10,14.1
	c0,0,11,12.6,14,9.6s3.3-8,12.3-5.3s13,7,16.7,11.7c0,0,15.7,3.7,17,7s7.7,10.3,12,5.3s4.7-13,11.3-9.7c6.7,3.3,15,6,18,17
	s2.3,12,5.3,11s5-11,5-14.7s4.3-7.7,8.3-6.3c4,1.3,10-5.3,10-5.3s12-1.7,13.3,3.7c1.3,5.3,15.7,8,15.7,8s6.3,4.3,6,8.3l12,0.7
	c0,0,20.3,13,21.3,21s4.7,15.7,4.7,15.7s2.3,3.7,7.7,0c5.3-3.7,10-7,13.3-1s14.7,13.3,18,13.3c0,0,10.3-1.7,15.3,4.7s10.3,4,10.3,4
	s5.3-3,10.7,4.7c5.3,7.7,12.3,12.7,11,17.3c0,0,6.7,2,9.3,0c2.7-2,9.3,4,9.3,12s2.3,11,7.3,11.3s17.3,0.3,16,7.3s-1.7,28.3-1.7,28.3
	h57.7c0,0-6.3-23.3-33.7-42c-27.3-18.7-43.3-37-43.3-37s-8.7-1.7-6-6.7s-2-7-4.3-9.7c-1.4-1.6-1.6-4.8-0.3-8.1l-0.5-3.2l-8.9-18.2
	h-14.1c0,0,0.6-6.5,4.4-10.8s-0.9-9-7.9-6.7c0,0-14,15.1-18,12.6s-9.3-5.7-1.5-13.6c7.8-8,5.8-15.3,5.8-15.3l-2.3-13.7
	c0,0-6-5.4-7.5,2.5l-4,19.5l-30,10.8l-49-32.8l-39.9-16c0,0-40.5-26.6-59.9-26.6l-3.6,3c0,0-4.2,0.4-13.3-10.7l-3.8-1.1l-28.1-18.2
	c0,0-8.4-3.4-3.7-14.7c0,0-0.9-1.7-4.3,2.7c0,0-2.7,3.9-8.7,2.5l-42.6-4.6c0,0-5.8-28.9-19.5-31.7c0,0-4.2-1.2-2.2-11.2
	c0,0-10.3-24.1-27.2-36.3c0,0-8.1-0.4-12.7-25c0,0,0.7-11.6-17.4-14.8c0,0-6.8-4.3-20-36.7c0,0-0.9-5.1-9.9-6.2c0,0-7.6,3.1-6.6-0.9
	s4-10.9,4-10.9s4.2-6.9-7-12.2c0,0-31.6-17.5-41-18c0,0,3.8-17.4,12.2-21.7l0.6-9.2C246.7,542.6,241.5,544.1,241,538.6z"/>
<path class="st1" d="M214.2,249.6c0,0-4.1,5.8-8.7,7.5c0,0-1.3,9,0,13.3h-10.3c0,0-8.3,4-7,6.7s5.7,4.3,5.3,7.7c-0.3,3.3,1,6-1,7
	s-5,2.7-4.5,6.7s-4.2,2-3.9,6.3s-3.7,11.7-5.5,12s-2.8,0.7-3.1,5s-6,4.7-9,2.3s-5-7.3-6-3s-2.7,13.7-7.3,13s-10-2-10-2l-5.6-3
	l-2.4,32.6c0,0,0.5,12.4-8.1,11.5c-8.7-0.9-6.3,7.3-6.3,7.3s11.3,21.5,16.4,30.2c5,8.6,10.6,6.3,14.2,4.3s6.4-0.2,10.3,9.5
	c3.8,9.6,11.2,2.2,11.2,2.2c8.7,3.5,14,16.2,14,16.2l1.2,25.8l16.2,8.7c14,2.8,25.4,13.3,25.4,13.3l2.5-3.7c0,0,0-19.3,2-19.3
	s3.3-9,4-14.7s8-4,11-4s10.3-2,12-8s5.3-6,5.3-13s6.3-3.3,9-8.7c2.7-5.3,6.3-2,9,0s12.7,2.4,12.7,2.4c0-11,1.2-16.6,1.2-16.6
	c2.7-1,6.7-5.3,6.7-5.3c4.7,4.7,5.9,0.8,5.9,0.8c1-2.7,1.7-5.4,2.7-6.4c0.7-0.8,1.6-0.8,1.6-0.8c-5.4-2.1-12.2-6.3-12.9-9.4
	c-1-4.2-12.5-11.8-14.2-10.8s-8.5,5.2-9,3s-6.2-2.5-4-6.5s-0.8-11-8.5-13.5c0,0-7.2,6.5-10.5,0.2s-8.8,0-8.8,0s-8.8-1.2-8.2-6.5
	s-1.2-10.2,5.2-14.8s10.8-10.5,10.8-10.5s3.8-0.5,7.5,1.2s4.5-16,4.5-16s-3.2-1.5-10.2-3c0,0,0-6.2-4.2-7.2c0,0-17.8,0.8-17.2-1.5
	s3-7.8,3-7.8s-4.8-8.2-9.2-12.5s3.5-12.8,9-11.8s2.8-8,2.8-8s-9.8-5-10.2-9.8c0,0-6-1-8.5,1s-6.8,3.8-6.8-1.2L214.2,249.6z"/>
<path class="st2" d="M0.6,23.9h7c3.2,0,5.7,2.6,5.7,5.7v15c0,3.2-2.6,5.7-5.7,5.7H1.3"/>
<path class="st2" d="M0.6,74.3c0,0,4.9-1.5,4.4,5.5s0,11.5,0,11.5l9.7,6h12.5c0,0,6.8,3,4.8,5s-8.5,8-8.5,8s-2,1.5,5.5,6.8
	s17.8,13.8,17.8,13.8c5.8,0,11.9-1.5,17.7-0.1c6,1.5,9.7,4.2,15-0.4c5.9-5.1,7.6-13.6,13.5-18.7c5.9-5,13-9.5,20.2-12.2
	c3.3-1.2,8-3,11.4-1.2c4.3,2.2,4.9,11,10.7,9.9c3.1-0.5,4.8-4.1,7.2-5.8c4.9-3.4,15.5-5.2,16.6,3c1.2,10,4.5,16.8,13.8,17.2
	s25,0,25,0s4,2.5,11.8-0.5s11.5-1.5,13.2,1.5s16.4,1.3,16.5,1.2c5.8-0.7,11-4.5,15.6-7.8c4.2-3,7.7-7.3,12.7-8.9
	c4-1.2,9-0.9,13.2-1.3c5.9-0.5,8.3-8.4,10.6-12.7c2.2-4.2,5.4-7.5,9.4-10.1c6.3-4.1,11.9-9.6,14.3-16.9c0.6-1.9,6.1-2.7,7.6-3.6
	c7.9-4.2,11.9-14.9,15.5-22.8c5.9-12.7,10.8-25.9,15.4-39.2"/>
<path class="st2" d="M343.2,29.1c0,0,14.4,10.7,29,11.7c5.7,0.4,11.5,0.1,17.3,0.1c0.4,0,0.8,0,1.1-0.2c0.4-0.2,0.6-0.6,0.8-1
	c5-10,13.8-13.8,24.9-13.2l18.3,12.3l93.3,18l25,12.3c0,0,7.7,2.7,10.7,0s1.3-6,22.6-5.3c0,0,17-4.3,5.4-10.3l-7.8-5.1
	c0,0-5-3.4,29.3-15.4c0,0,1.2-5.3,19,18c0,0,24.5,16.2,30.5,14.7s4.3-8,4.3-8s1.2-8.5,8.7-5.2c0,0,7.3,7.3,9.2-3c0,0-1.2-7.3,5.7-8
	c2.1-0.2,5.2-2.7,7-3.7c2.3-1.3,4-2.5,6.6-3c2.2-0.5,4.7-0.4,6.1-2.6c2-3.2,8.2-6.5,13.7-1.8c4.8,4.1,3.2,9.7,3.2,15.2
	c0.1,4.9,0.1,9.7,0.2,14.6c0.1,7.7,0.2,15.4,0.3,23.1l37.3,41.8c0,0,5.8,10,0,16c0,0-3,1.8-2.8,11l1.5,19.5c0,0,4.2,7.5,9.5,3
	s7.2-7,10.2-3.8s1.8,10.2,1.8,10.2s6.2,4.5,6,11l17.2,14.2c0,0,3.5,10-1.2,16.8c0,0-6,4.2-9.8,3.2s-4.8,5-4.2,9.2s1.2,8.2,3,10.8
	s1.2,10.2,1.2,10.2s2,4,6.2,0s3.8-9.8,24.8-6.5c0,0,25.8,5,35,3c0,0,4.8-3,6-12.8s8.2-4.2,11.5-1.8s7,4.5,12.2,0.2
	c5.2-4.2,2.8-9,16.8-8.2c9.6,0.5,18.8,4.9,27.8,7.8c0.5,0.2,1,0.3,1.4,0.7s0.5,1.1,0.6,1.6c1.5,8.5,1,17.1,1,25.7
	c0,5.6,0,11.2-0.1,16.7l-11.9,12.5c0,0-16,13.3-10,23.7c0,0,5.7,8.7,4,24c0,0,9,17.3,13.7,18s5.7,2.3,13.3,7.7
	c7.7,5.3,20.6,3.3,20.7,3.3c1.5-0.2,10.2,9.2,11.8,10.5c5.9,4.8,12.2,9.4,19.6,11.7c4.8,1.5,7.2-2.8,11.6-3.8
	c5.9-1.4,11.1,2.1,14.7,6.6c0,0,6.3,7.3,1.7,28.7c-1.1,5-0.5,9.9,1.3,14.7c1.4,3.6,3.5,7.4,6.1,10.2c2.5,2.7,6.1,4.7,7.3,8.5
	c0.7,2.2,0.3,4.7,0.7,7c0.8,5.3,6.3,5.9,10.6,7.3c3.1,1,2.7,4.5,4,7c1.5,2.7,3.7,4.1,6.8,4.9c4.4,1.1,9,1.4,13.5,1.7
	c1.2,0.1,2.5,0.1,3.6-0.3c2.1-0.8,3.1-3.1,4.1-5.1c2-4.2,4.9-4.8,9.2-4.9c3.1-0.1,8,0.2,8.9,3.8c1.3,5,0.3,10.7-4.7,14
	c0,0-6.4,0.2,19.3,41.2c0,0,3.8,10.5-9.5,9.8s-17-1-17.2,2.2s0.8,7,4.8,8.5s18,13,18,13s4.7,8.5,0,8.7c-2.8,0.2-5.2-0.4-7.7,1.1
	c-2.6,1.6-2.5,4.6-6.6,4.8c-2.7,0.1-5.3-1-7.7-2.3c-2.4-1.3-4.7-2.7-7.3-3.5c-5.6-1.6-12.7,0.9-16.2,5.6c-4.5,6-1.6,13.7,0.7,20
	c0.5,1.5,1.1,2.9,2.2,4c2.1,2.2,5.7,2.5,7.7,4.8c0.9,1,1.4,2.6,0.8,3.8c-0.3,0.6-0.9,1.1-1.4,1.6c-1.5,1.7-1.5,4.5,0,6.2
	c0.6,0.7,1.4,1.2,2,1.9c2.3,2.8-0.1,6.2-1.9,8.5c0,0-20.6,32.3-32.9,39.6c-12.4,7.3-18.3,8.2-50.3,5c-1.6-0.2-4.6-2.9-6-3.8
	c-2.1-1.4-4.1-2.8-6-4.4c-1-0.9-3.9-5.3-4.9-5.5c-2.5-0.5-9.2,7.5-10.9,9.1c-4.7,4.5-9.1,9.5-12.3,15.2c-2.7,4.9-6.6,12-5.5,17.7
	c0.4,2.5,1.9,4.7,3.2,6.9c6.1,10.2,10.3,21.1,8.6,33.1c0,0,3.7,3.9,18.4,2.2c0,0,5.3,5.3,11.7,4.3c6.3-1,23.3-2.7,33.7,6
	c2.8,2.3,6.2,4.8,8,8.1c1.8,3.2,1.3,6.3,4.5,8.8c7.2,5.6,14.1,11.6,21.1,17.4c1.3,1.1,1.6,4.4,2.9,5.8c2.4,2.9,6.6,5.1,9.6,7.4
	c0.9,0.7,1.7,1.3,2.4,2.2c0.7,0.9,1.2,1.9,1.7,2.9c1.7,3.4,3.7,6.8,6.7,9.1c3.2,2.4,7.1,3.5,10.7,5.2c7,3.4,12.5,9.2,17.6,15.1
	c1.1,1.2,2.1,2.4,3.5,3.2c6,3.3,13.3-1.7,19.6-0.6c1.7,0.3,3.4,1.1,5,1.6c2.7,0.8,5.6,1.1,8.3,0.7c1.7-0.2,3.5-0.7,5.2-0.5
	c6.4,0.6,10.3,7.9,17.2,6.9"/>
<path class="st1" d="M55.8,161.1"/>
<path class="st1" d="M26.7,187.3H34l5.7,13.7l9,17c0,0,7.9-9.1,11.1-11.4s-0.5-13.3,0-19.2c0.5-6,6.9-2.7,6.9-2.7s1.4,4.6,2.7,11.4
	c1.4,6.9,8.7,2.7,8.7,2.7c3.7-6.4,10.1-5,10.1-5c0.5-5.9,17.8-8.7,17.8-8.7l29.7-0.9c6.9-2.3,7.3,5.5,4.1,9.6s0,6.9,5,4.1
	c5-2.7,5.5,0.9,5.5,0.9l12.4-0.5c16,2.3,10.5,11.9,9.6,16.5s3.2,6.9,7.3,7.8s0,7.8,5,10.5s2.3,6.9,2.3,6.9c1.4,8.2,10.1,0,10.1,0
	c9.2-7.3,14.2-1,14.2-1c5-5.4,3.3-7.9,3.3-7.9c-8.4-5.2,4.8-14.3,9.4-16.4c0,0-1.2-3.8-4.1-6.8c-5.1-5.3,2.7-5.4,6-6.7s-1-7.3-1-7.3
	s7.3-5.7,3.3-8.8c-4-3.2-1.7-5.8,4.7-8.5c6.3-2.7,9,1.3,10.7-2.3s8-9.3,8-14.3s4.3-6.3,4.3-6.3s1-1.7,0-8s1-14,7-14.3s5-6.7,4-9.7
	s-4.4-11.1-4.4-11.1s0,0-13.6,9s-26.7,2.9-26.7,2.9c-4-5.5-10.5-2.4-10.5-2.4s-9.2,3.9-11.9,2.2s-18.9-0.6-29.3-1
	s-9.7-7.5-12.1-17.1S144,99.9,144,99.9c-11.4,10.8-13.5,5.7-13.5,5.7C124,91.1,116.1,97,116.1,97c-25.8,8.1-29.2,20.3-32.7,26.4
	s-9.8,10.4-14.4,7.7c-3.4-2-8.5-1.7-12.2-1.7c-2.7,0-6.6-0.9-9.2,0.3c-1.9,0.9-1.6,1.3-2,3.2c-0.7,3.4-1.6,6.8-3,10.1
	c-1.5,3.6-3.4,7.4-6,10.3c-1.7,2-3.9,3.9-4.5,6.7c0,0-0.3,4.7,1.7,9.9c0,0,2.5,1.9-4.2,7.7C29.7,177.3,25.2,181.8,26.7,187.3"/>
<path class="st2" d="M4.2,182.9c0,0,9-8,20.7,5.7h11.7c0,0,0.3,7.7,5.7,13.7s8,14.7,9,17s12.3,0,15.3,8c3,8,7,10,7,10l7-5.3
	c0,0,8-8.3,12.7,0.3C98,241,90,247.6,90,247.6l-8.3,2c0,0-5.3,2-1.3,8.7c2.9,4.8,4.1,10.9,4.8,16.4c1.3,10.3,15,13.9,23.5,10.9
	c0,0,4.4-2,10.2,15.8s10.8,19,20,26.8l-3,41.5c0,0-2.5,4.5-7.5,2.8s-8,2.8-7,5.8s18,35.2,20.2,36s2.2,5.8,11,0c0,0,3-3.5,8.2,6
	s6.2,9,11.8,6s15.2,13.2,15.2,13.2s1.2,16.2,0,25.5c0,0-4.8,3,26,15c0,0,17,4,17.2,11.2c0,0-2.1,17.8,5.9,23.8
	c8,6,12.7,9.7,11.7,19.7c0,0,4.7,16.3-6.3,3.7c0,0-3.3-11-8-8.7s-8.7,1-8.7,1s-7.3,1.3-7.7,17.3c-0.3,16-15,33.3-15,33.3
	s-1,4.3,19.3,19.3l0.3,13.3l25,19.3c0,0,0.3,8.3-7.7,8s-27.7,2-35-6.3s-9-10-9-10s-7.7-0.3-11.3,0.7c-3.7,1-16.7-11.3-16.7-11.3
	s-24-1.3-36.3-26c0,0-14-9-19.7-19c0,0-20.7-15.3-25.7-14.7c0,0-11.7,13.7-27.7,5.3c0,0-25-5-31-18.3c0,0-12.7-24.4-23.3-26.7v52.3
	c0,0,10.3,9.3,11,16.7c0.7,7.3,10.3,14.3,19.7,13.3c0,0,21,16.3,36.7,35.3c0,0,1.3,8.3,43,19.3c0,0,17,3.3,29.7,19.3
	c0,0,3.7,12.7,12.7,12s22,8.3,22,8.3l38,30.7c0,0,34.3,37.3,34.3,44.3s2.3,16.7,11,14.7s15.7-6.3,15.7-6.3s12.7-2,18.7,4.3
	s12.3,10,15.7,6.7c3.3-3.3,16.3-11.3,19-11s7.7,3.3,9.3,6.3c1.7,3,11.3-0.7,11.3-0.7l7.7,6.6c0,0-3,6.7-2.7,8.7s4.3,11,1.3,15
	s-30,20-30,20s29.7-15.3,36-12.3s11.3,1,12.7,9c1.3,8,10,11,10,7s-12.7-20.3-11-25.3s5.7-6.7,6.3-16c0.7-9.3,8,0.3,8,0.3
	s0.7,5,29,3.7c0,0,5.3,10.7,8,10.7s12.7-1,11.3,4.7s-5,5-8.7,6.7c0,0,4.7,9.3-2.3,13.7c-7,4.3-1,6.3-1,6.3s8.3,3.9,10,14.1
	c0,0,11,12.6,14,9.6s3.3-8,12.3-5.3s13,7,16.7,11.7c0,0,15.7,3.7,17,7s7.7,10.3,12,5.3s4.7-13,11.3-9.7c6.7,3.3,15,6,18,17
	s2.3,12,5.3,11s5-11,5-14.7s4.3-7.7,8.3-6.3c4,1.3,10-5.3,10-5.3s12-1.7,13.3,3.7c1.3,5.3,15.7,8,15.7,8s6.3,4.3,6,8.3l12,0.7
	c0,0,20.3,13,21.3,21s4.7,15.7,4.7,15.7s2.3,3.7,7.7,0c5.3-3.7,10-7,13.3-1s14.7,13.3,18,13.3c0,0,10.3-1.7,15.3,4.7
	c5,6.3,10.3,4,10.3,4s5.3-3,10.7,4.7c5.3,7.7,12.3,12.7,11,17.3c0,0,6.7,2,9.3,0c2.7-2,9.3,4,9.3,12s2.3,11,7.3,11.3
	s17.3,0.3,16,7.3s-1.7,28.3-1.7,28.3h57.7c0,0-6.3-23.3-33.7-42c-27.3-18.7-43.3-37-43.3-37s-8.7-1.7-6-6.7s-2-7-4.3-9.7
	s-1.3-9.3,4-14.3s20-14-4.7-34.3c0,0-1.3-36,21-49.7c0,0,8.7,2.3,9-1.7s-6.4-5-6.4-5s-4.6-4.7,4.7-11s16.7-15,14.7-20.7
	s1.7-11.3,7.7-9s17.3-6.7,17.3-6.7s37.3-19.2,44.8-18.7s34.5-10,34.5-10s12-15.5,16-14.5s12.5-1,12.5-1s12-4,15,1s3.5,9,0,11.5
	s4.5,9,8,4s2-12,4.5-14.5s11.5-7,16.5-3s10.1,7.3,10.1,7.3"/>
<path class="st3" d="M550.6,1036.8v-5.9c0,0,4-3.7,7.3-2.7c0,0,13.3-16.7,17.7-16.3c4.3,0.3,15.3-6,15-9s-12.7-5-12.7-5
	s-6.7-4-7.3-8.7c-0.7-4.7-18,0-18,0s-15.7-10.7-23-11s-15.7,0.3-16-7.7c0,0,0.7-4-9.7-11.7c0,0-3.3-20,10.3-21c0,0,5.7,3.7,7,7.3
	c1.3,3.7,13.7-17,18.7-14.7s6.6,5.7,7.2,10.3c0.5,4.7,9.5,3,10.8,0.7s9.3-11.2,9.3-11.2s8.3,2.2,6.3,7.5s-1,10.3,2.7,6.3
	s8.3-7,8,1.7s6.3,12.7,8.3,8.3s4.7-14.3,4.7-14.3s10.3-14,13-15.7s-2.7-8.3,2-11s8.3-12.5,8.3-12.5"/>
<path class="st3" d="M937.6,238.3l14.7-10.8c0,0,6.3-16.7,9.3-15s8,11,11.3,10.7s7.7,0.7,7.3-4c-0.3-4.7-2-10,2.7-14
	s6.3-5.7,8.3-3.7s6.3,4.3,8.7-0.8c2.3-5.2,4.3-17.5,11.7-16.5s14.7,2.3,17.3,7.3c0,0,6.7,2.3,15-2s6.7-8,6.3-9
	c-0.3-1-5.7-10.7,2.3-13c0,0,5.3-1.7,7.7,1.7c2.3,3.3,9-0.2,8.7-2.1s-4.6-5.2,0-8.9c4.7-3.7,7-7.7,11.3-4s12,9,13.7,3.7s0-16,0-16
	s1.3-8.7,11.3-1.7s22,15,22,15s4.3-0.7,2.7-5c-1.7-4.3,0.7-8.3,4.7-5.7c4,2.7,12,4.3,19.3-1.3c0,0,11.4-3.3,14.7,3"/>
<path class="st3" d="M1092.7,0.3c0,0,7.8,23,10.5,40.4s6.9,25.6,18.8,27s20.1,3.7,24.3,16.9c4.1,13.3,3.2,20.6,3.2,20.6
	s0.9,21.5,22.4,25.2"/>
<path class="st3" d="M2.2,876.5c0,0,7.5-11,11.5-6.5s1.5,10,7.5,6.5s5-3.8,10.5,1.1s13.5,1.4,14.5-4.3c1-5.8,3.5-12.8,3.5-12.8
	s-7.5-6-6-9.5s13-16,17.5-15.5s13-24.5,13-24.5s8.5-7.5,14.5-4s5.5-4.5,5.5-8s13.5-12,13.5-12s5-1,5.5,5.5s4,8.5,6,11s-1,9,7.5,8.5
	s18-6.5,18.5-8.5s6-3,4,7s1.5,18.9,6.5,22.9c5,4.1,11.5,15.6,10.5,22.1s0,11.5,0,11.5s8,7,13.5-1c0,0-2.5-11,6-12.7
	c0,0,9,11.2,18,7.7s15-18,15-18s4.5-8,13-1s17.5,14,21,11.3c3.5-2.8,23.5-24.3,23.5-24.3s9-8-9-11.5c0,0-10.5-30.2-7-36.3"/>
<path class="st1" d="M398.8,192"/>
<path class="st1" d="M380,184.4c-4.8,2.2-1.3,12.7-3.7,15.8c-2.3,3.2,4.3,9.2,4.3,9.2s2.7,12.3-0.8,14.2c-3.5,1.8-13.2,7.3-15.5,11
	s-24.3,6.7-26.7,4.8c-2.3-1.8-12.5-6.3-16.2-3.8s-14.3,3.5-15.5,2.3s-17.7-14.5-21.7-17.7s-9.5,1.2-11.7,3.7s-4.8,1.3-6.8-0.5
	s1-2.8,1.5-5.8s-9-5-10.8-3.5s-1,8.2-1,8.2c-3-1.2-6.5,2.2-7,3.8s-10,3.5-11.5,0.5s-10-4.2-10-4.2c-1-2.9-1.9-5.8-3.6-8.2
	c0,0,1.2-1.6-3.8-6.9s2.7-5.4,6-6.7s-1-7.3-1-7.3s7.3-5.7,3.3-8.8s-1.7-5.8,4.7-8.5c6.3-2.7,9,1.3,10.7-2.3c1.7-3.7,8-9.3,8-14.3
	s4.3-6.3,4.3-6.3s1-1.7,0-8s1-14,7-14.3s5-6.7,4-9.7s-4.4-11.1-4.4-11.1s8.6-4.1,17.8-3.7c9.2,0.4,12.2-15.5,12.2-15.5
	s9.3-10.7,18-5.4s1,5.3,11.3,5.3c0,0,14.3-3.3,8.7,4c-5.7,7.3-7,10-4.3,10.3s2-1.7,8.3-2.7s12.7,12,11.3,14.3
	c-1.3,2.3-1.3,7-6.7,11.3c0,0-3.7,8.3,1.3,8.7c5,0.3,8.3-1.3,7.7,2.7c-0.7,4,3.3,2.7,6.3,2.7s4,6.7,3,8.3s1.3,4.3,5,3.7
	c3.7-0.7,5-6,11-4s8.7,2,6.7,4.3s-6.3,4-5,4.7s3.7,0.6,1.7,3s-5.7,4.7-5,6.4s2.7,4,0.7,6.7s-4.3,4.3-2,5S380,184.4,380,184.4z"/>
<path class="st1" d="M214.6,231c-8.4-5.2,4.8-14.3,9.4-16.4c1.7,2.4,2.6,5.3,3.6,8.2c0,0,8.5,1.2,10,4.2s11,1,11.5-0.5s4-5,7-3.8
	c0,0-0.8-6.8,1-8.2c1.8-1.5,11.3,0.5,10.8,3.5s-3.5,4-1.5,5.8s4.7,3,6.8,0.5c2.2-2.5,7.7-6.8,11.7-3.7s20.5,16.5,21.7,17.7
	s11.8,0.2,15.5-2.3s13.8,2,16.2,3.8c2.3,1.8,24.3-1.2,26.7-4.8c2.3-3.7,12-9.2,15.5-11s0.8-14.2,0.8-14.2s-6.7-6-4.3-9.2
	s-1.2-13.7,3.7-15.8c4.8-2.2,12.5,0,12.5,0s5.8,5,5.7,7c-0.2,2,3.7,2.3,5,1.8s0,7.5,0,7.5s3,2.5,9.5-0.8s8.8-5,11.5-3.2
	c0,0,2.3,4.3,6.1,4.3s13,3.8,12,6.8s-3,9-1,9.5s15.8,7.8,11.5,17.5s-4.2,3-4.2,5.1s1.5,3.9,3.2,5.1s0.4,16,1.8,17.2s9.9,3,7.2,6
	s-10.5,4.5-9.8,9.5s4.5,11.2,3.5,12.8s-9.2,12.2-10.8,9.8s-7.8-2.7-10.2,0.4c0,0-7.2,2.6-8.8,5.4s-4.2,10-1.8,11.8
	s8.5,10.8,8.8,14.2s0.8,6-3,10s-3,7.5-3,7.5s-5.2,4.2-10.8,1.5s-9.5,1.8-7.8,4.2s5.8,5.5,4.2,9.5s-4.5,8-3.8,10.5
	s-0.2,13.2-0.2,13.2s-6.5,3.8-8.3-2.5c-1.8-6.2-3.8-14.8-9.8-13.2s-9.8,10.2-13.5,4.2s-6-5.8-3.8-10.8s-5-3.8-10.2,0s-14-2.8-14-2.8
	s-15.8-4.5-16.8-10.2s-8.8,1.8-8.2,5s10.5,7.5,6,10.8s-6.8,4.8-5.5,11s-0.5,14.2-5,14s-16.8-6.5-17.8-10.8s-12.5-11.8-14.2-10.8
	s-8.5,5.2-9,3s-6.2-2.5-4-6.5s-0.8-11-8.5-13.5c0,0-7.2,6.5-10.5,0.2s-8.8,0-8.8,0s-8.8-1.2-8.2-6.5s-1.2-10.2,5.2-14.8
	s10.8-10.5,10.8-10.5s3.8-0.5,7.5,1.2s4.5-16,4.5-16s-3.2-1.5-10.2-3c0,0,0-6.2-4.2-7.2c0,0-17.8,0.8-17.2-1.5s3-7.8,3-7.8
	s-4.8-8.2-9.2-12.5s3.5-12.8,9-11.8s2.8-8,2.8-8s-9.8-5-10.2-9.8c0,0-6-1-8.5,1s-6.8,3.8-6.8-1.2s-7.2-4.5-2.2-10
	C217,232.6,214.6,231,214.6,231z"/>
<path class="st1" d="M322.6,63.5c-5.6,1.2-7.6,3.6-11,10.2s-15.9,11.6-11,10.3s9.6,1.3,9.6,1.3c8.7,5.3,1,5.3,11.3,5.3
	c0,0,14.3-3.3,8.7,4c-5.7,7.3-7,10-4.3,10.3s2-1.7,8.3-2.7s12.7,12,11.3,14.3c-1.3,2.3-1.3,7-6.7,11.3c0,0-3.7,8.3,1.3,8.7
	c5,0.3,8.3-1.3,7.7,2.7c-0.7,4,3.3,2.7,6.3,2.7s4,6.7,3,8.3s1.3,4.3,5,3.7c3.7-0.7,5-6,11-4s8.7,2,6.7,4.3s-6.3,4-5,4.7
	s3.7,0.6,1.7,3s-5.7,4.7-5,6.4s2.7,4,0.7,6.7s-4.3,4.3-2,5s9.8,4.5,9.8,4.5l0.6-0.5c4.8-2.2,12.5,0,12.5,0s5.8,5,5.7,7
	c-0.2,2,3.7,2.3,5,1.8s0,7.5,0,7.5s3,2.5,9.5-0.8s8.8-5,11.5-3.2c0,0,2.3,4.3,6.1,4.3s13,3.8,12,6.8s-3,9-1,9.5
	c1.6,0.4,11,5.3,12.2,12.3c0,0,9.7-0.9,12.7,4c0,0,3.8,0.8,6.6-0.8s4.6,4.1,6.2,3.4s1.6-12.5,1.6-12.5s1.1-3.8,4.2-4.8
	s1.2-12.9,1.2-12.9s4.8-5.4,5.6-8.2s7.1-4.1,7.1-4.1s2.4-2-1.4-4.1s0.6-6.1,1.5-6.2l0.9-0.1c0,0,4.9-5,6.1-9s11.9-15.5,17.7-15
	s3.2-6,3.2-6s-3.8-1.2-3-6.2s1.2-4.5-2.8-6.2s-8.5-7-7.5-10.5s-3.3-6.2-2.8-10s4.5-4,2.8-6.2c-1.8-2.2-3.3-6.8-1-9.8
	s6.5-7.5,6.5-7.5s1-2.8-1.5-6s-1.2-9,1.2-12.8s-0.5-7.2,1.8-8.2s12.1-7.2,10.8-10.4C530.5,56,449.6,42,449.6,42l-15.3-2.9L416,26.8
	c0,0-17.2-1.6-24.9,13.2L372,41.1l-14.6-3.7l-14.5-8l-9.8,21.7l-4.5,7.3L322.6,63.5z"/>
<path class="st1" d="M431.8,332.4c-0.2,3.5,0.8,6-3,10s-3,7.5-3,7.5s-5.2,4.2-10.8,1.5s-9.5,1.8-7.8,4.2s5.8,5.5,4.2,9.5
	s-4.5,8-3.8,10.5s-0.2,13.2-0.2,13.2s-6.5,3.8-8.2-2.5s-3.8-14.8-9.8-13.2s-9.8,10.2-13.5,4.2s-6-5.8-3.8-10.8s-5-3.8-10.2,0
	s-14-2.8-14-2.8s-15.6-4.3-16.6-10.1s-8.8,1.8-8.2,5s10.5,7.5,6,10.8s-6.8,4.8-5.5,11s0.8,15.3-3.7,15.1c0,0-8.7-2.7-8.5,5.1
	c0,0-1.7,4.7-6.3,0c0,0-4,4.3-6.7,5.3s0,22,0,22s8.7,8.7,13.3,12c4.7,3.3-4,7-4,7s-1,4,5.7,3s9.3-7,17-2s4.2-1.3,12,4.3
	c7.7,5.7,5.4,11,5.4,11s-0.3,4.7,10.3,6.7c10.7,2,6.7,1,11.7,0s7,6.7,5,10.3c-2,3.7-5,6.7-2,10.7s7,7.7,10.3,6.3
	c3.3-1.3,3-6.7,3-6.7s4.7-4.3,8-1.7c3.3,2.7,13,2.7,15.7,2.3c2.7-0.3,5.7,10,8,9.7s5,2.7,9.3,0s3-5,9.3-2.7s9,2.3,10.7-0.3
	c1.7-2.7,1.3-5,7-1.7s7-2.3,7-2.3s7.3,2.6,7.7,8.1s12.6,12.5,13.5,11.2c0.8-1.3,11.8-1.7,11.5-8.3c-0.3-6.7-2.7-7,0-9.7
	s-3-6.7-3-6.7l1-7.7c0,0,1-3-3-5l-0.3-10.3c0,0,9-15.3,13-15.3s0-26,0-26s11.7-6.3,14-8.3s4.7-6-3.3-11.7s-3-11-12-14
	s-16.3-1.3-24.7,0.3c-8.3,1.7-13.3-0.7-14-4.3c-0.7-3.7-8-5-8-5s-3.3-5.7-7.7-5.7s-8-1.7-3-6.3c5-4.7,8.3-9.3,8.7-14.7
	c0.3-5.3,4-6.7,1.3-9s-13.7-19.3-15.3-17.3C435.6,330.2,432.1,326.3,431.8,332.4z"/>
<path class="st1" d="M539,160c0,0,1,6-1.2,10.8s6,7.8,7.9,6.8s14.8,4,13.1,6.3s0,6.9,0,9.2s8.8-4,8.8-4c0.5,2.5,5-5.5,6-7.5
	s8.8,7.7,9.2,8.7s1.5,10.5,0.5,12.2s2,8,0.5,10s5.5,1.2,6,8.5s-2.8,4.5-5.2,7.2s7.8,7.8,6.8,8.4c-1,0.7-2.8,3.3-3.5,4.1
	s2,3.5,2.8,8.2s8.8,3.8,10,0.8s5.2-8,6.8-10.8s10.2,3,10.2,0.5s0-4.8,4.2-9s7.8,0,7.8,0s14.5-0.8,13.8,4.5s12.5,4.2,20,3
	s5.8,3.5,2,7.5s0,9,0,9s-3.2,3.8-6.5,7.8s-5.5,4.2-0.8,9s2,16.2,2,16.2s0.5,18.2-3.2,19s-9,2.5-9,2.5c-2,3.8,2.2,5.8,3.8,9.8
	s-2.8,8.8-7.2,12.2s-4.8,1.2-7.2,1.2s-3.5,6.2-5.5,4.2s-9.8,1-9.8,1s-3.2,4.2-6.5,1.8s-2-2.5-7-5s-7,6-7,6s-6-0.5-9.5-0.8
	s-2.5,6.8-4.2,9s-7.8,3-9.8,2s-2.2-1.5-4.5-3s-6.2,6-8.5,5.8s-8.5-1.2-9.2,0.5s-2.2,9.8-4.2,9.5s-7.2,2-7.2,2c1.5,9.5-4.5,8-7.2,9.8
	s-8.8,0-8.5,2.2s5.7,4.5-1.5,8.8s-5.2,8.5-5.2,8.5c-11,2-21.3-4.7-21.3-4.7c-9-3-16.3-1.3-24.7,0.3c-8.3,1.7-13.3-0.7-14-4.3
	c-0.7-3.7-8-5-8-5s-3.3-5.7-7.7-5.7s-8-1.7-3-6.3s8.3-9.3,8.7-14.7c0.3-5.3,4-6.7,1.3-9s-13.7-19.3-15.3-17.3
	c-1.1,1.4-3.1,0-4.4,0.9c-1,0.7-1.9-0.6-1.9-0.6c-2-4-5.6-9.1-7.4-10.3c-2.5-1.8,0.2-9,1.8-11.8s8.8-5.4,8.8-5.4
	c2.5-3.1,8.8-2.9,10.2-0.4s9.8-8.2,10.8-9.8s-2.8-7.8-3.5-12.8s7-6.5,9.8-9.5s-5.8-4.8-7.2-6s-0.1-16-1.8-17.2s-3.2-3-3.2-5.1
	s-0.2,4.5,4.2-5.1c1-2.1,0.7-5.2,0.7-5.2s9.7-0.9,12.7,4c0,0,3.8,0.8,6.6-0.8s4.6,4.1,6.2,3.4s1.6-12.5,1.6-12.5s1.1-3.8,4.2-4.8
	s1.2-12.9,1.2-12.9s4.8-5.4,5.6-8.2s7.1-4.1,7.1-4.1s2.4-2-1.4-4.1s0.6-6.1,1.5-6.2l0.9-0.1c0,0,4.9-5,6.1-9s11.9-15.5,17.7-15
	L539,160z"/>
<path class="st1" d="M636.8,331.5c0,0-4,21.3-5.8,23.2c-1.8,1.8-3.7,5.2,0,9.5s0.3,9.5-0.3,12.2s-1.5,2.7-7.6,5.8
	c-6.1,3.1-8.8,2.1-9.5,4.6c-0.6,2.4-3.4,0.9-6.7,6.9c-3.4,6,3.4,8.9,7.9,12c4.6,3.1,4,9.5-1.5,13.9s-0.9,7.5-1.8,11.1
	c-0.9,3.7-4.9,2.1-4.9,2.1c-2.4,0.9,1.8,6.1-0.9,8.2s-2.4,7.9,1.2,8.8c3.7,0.9,8.2,5.5,7.6,8.2s8.2,11.3,9.5,10.7
	c1.2-0.6,8.2-5.5,8.8-2.7s13.1-1.6,14-0.3c0.9,1.2,6.4-1.2,6.4-2.1s9.2-5.2,11-3.4s5.5-6.1,8.2-9.2s-3.1-4.6-4.2-7
	c-1.2-2.4,6.7-5.2,7-4.4s5.2-0.5,5.5-2.9s5.5-3.7,6.4,0.3s4.9,0,5.5,0s1.8-5.5,2.7-7s2.7-4,2.7-6.4s1.8-6.1,4.6-8s1.8,4,3.1,7.3
	c1.2,3.4,6.4-7.3,6.4-7.3s5.8-0.3,8.2-2.1s-2.1-6.4-2.1-6.4s-4.3-7.3-0.6-9.8c3.7-2.4,3.4-8.2,2.7-12.2c-0.6-4,4.9-4,5.8-4.9
	c0.9-0.9-1.5-8.2-1.2-10.4s5.2-2.7,9.2-2.7s2.7-6.1,4.3-8.2c1.5-2.1-2.4-6.1-5.5-5.8c-3.1,0.3-4.9-2.4-5.8-4.6
	c-0.9-2.1,1.2-2.4,3.7-6.1s6.4-0.3,10.1,0c3.7,0.3,2.1-2.1,2.1-7.9s-6.7-3.4-10.4-3.5s-3.1-6.6-2.4-10.9s-0.9-6.4-2.8-7
	c-1.9-0.6-1.8-7-0.2-9.2c1.5-2.1-4.9-7.9-7.9-7.9c-3.1,0-6.4,0-7-4.6s-9.8-12.8-12.5-11.9s-8.2-0.9-8.8-3.7
	c-0.6-2.8-5.5-0.2-7.3,1.6c-1.8,1.8-6.4,2.4-8.8-1.6c-2.4-4-5.2-5.1-9.2-7.6c-4-2.4-7.7,1.7-7.7,1.7c4.8,4.8,2,16.2,2,16.2
	s0.5,18.2-3.2,19s-9,2.5-9,2.5c-2,3.8,2.2,5.8,3.8,9.8s-2.8,8.8-7.2,12.2s-4.8,1.2-7.2,1.2v0.7L636.8,331.5L636.8,331.5z"/>
<path class="st1" d="M532.1,58.9c1.3,3.1-8.6,9.4-10.8,10.4s0.8,4.5-1.8,8.2s-3.8,9.5-1.2,12.8s1.5,6,1.5,6s-4.2,4.5-6.5,7.5
	s-0.8,7.5,1,9.8c1.8,2.2-2.3,2.5-2.8,6.2s3.8,6.5,2.8,10s3.5,8.8,7.5,10.5s3.5,1.2,2.8,6.2s3,6.2,3,6.2s0.9,2.4,0.4,4.1v1.7
	l11.1,0.5c0,0,1,6-1.2,10.8s6,7.8,7.9,6.8s14.8,4,13.1,6.3s0,6.9,0,9.2s8.8-4,8.8-4c0.4,1.8,4-3.9,4.3-4.4c0.8-1.3,1.2-3,2.7-3.1
	c2.5-0.1,7.3,6.8,8.3,8.7c0.5,1,1.5,10.5,0.5,12.2s2,8,0.5,10s5.5,1.2,6,8.5s-2.8,4.5-5.2,7.2s7.8,7.8,6.8,8.4
	c-1,0.7-2.8,3.3-3.5,4.1s2,3.5,2.8,8.2s8.8,3.8,10,0.8s5.2-8,6.8-10.8s10.2,3,10.2,0.5s0-4.8,4.2-9s7.8,0,7.8,0s14.5-0.8,13.8,4.5
	s12.5,4.2,20,3c0,0,5.4-2.5,5.2,4.2s15.1-7,12.4-10c-2.7-3,7-1.7,9.7-1.7s8.7-7,0-11c0,0,1.3-15.3,7.7-23.3c6.3-8,6-11,6-14.7
	s1-9.7,5.7-12.7s-3.3-6.3-3.3-6.3s-0.7-4.5,4.8-6.4s4.2-7.9,4.2-7.9s2.3-1,4.7-1c2.3,0,3-8,3-8s5.3-1,6-2.3s-1.7-9.3-1.7-9.3
	s-1-3.3,3.3-1.7c4.3,1.7,5.7,1.3,6.3,4c0.7,2.7,4.3-2.3,4-5.3s6.3-4.7,10-2.3c3.7,2.3,6.3-4.3,6.3-4.3l-30.1-33.7l-0.4-46.7
	c0,0-5-12.7-13-7.7s-7.5,7-14,7.5c0,0-9.9,6.2-9.8,5.8c0.2-0.5-5.5,2.5-5.5,5s0.2,10.5-5,8.5s-7.5-7-11.2-2.5c0,0-2,6.5-1.2,8.8
	c0.8,2.3-5.2,6.5-11.2,2.8s-25-9.8-29.5-20.8c0,0-10.4-12.4-11.9-11.6c-1.5,0.8-34.7,12-30,16.7s11.3,6.7,11,8s-5.3,8-8,6.7
	s-19.7,0.3-20,1.3c-0.3,1-7.7,10-14.3,4l-10.7-5L532.1,58.9z"/>
<path class="st2" d="M46.7,130.8c-1.7,5.7-4.8,13.3-5.3,19.2c0,0.3-0.1,0.7-0.2,1c-0.2,0.3-0.5,0.5-0.8,0.7
	c-4.9,3.5-7.6,9.5-5.8,15.4c0.2,0.7,0.5,1.4,0.7,2.2c1.2,6.2-8.5,15.2-12.4,19.3"/>
<path class="st1" d="M493.6,503c-0.3-6.7-2.7-7,0-9.7s-3-6.7-3-6.7l1-5.7c0,0,1-3-3-5l-0.3-10.3c0,0,9-15.3,13-15.3s0-26,0-26
	s11.7-6.3,14-8.3s4.7-6-3.3-11.7s-3-11-12-14l0.2-0.4c0,0,10.3,6.6,21.3,4.7c0,0-2-4.2,5.2-8.5s1.8-6.5,1.5-8.8s5.7-0.5,8.5-2.2
	s8.8-0.2,7.2-9.8c0,0,5.2-2.2,7.2-2s3.5-7.8,4.2-9.5s7-0.8,9.2-0.5s6.2-7.2,8.5-5.8s2.5,2,4.5,3s8,0.2,9.8-2s0.8-9.2,4.2-9
	s9.5,0.8,9.5,0.8s2-8.5,7-6s3.8,2.5,7,5s6.5-1.8,6.5-1.8s7.8-3,9.8-1s3-4.2,5.5-4.2l-0.6,0.4c-1.1,5.5-3.9,19.5-5.4,20.9
	c-1.8,1.8-3.7,5.2,0,9.5s0.3,9.5-0.3,12.2s-1.5,2.7-7.6,5.8c-6.1,3.1-8.8,2.1-9.5,4.6c-0.6,2.4-3.4,0.9-6.7,6.9
	c-3.4,6,3.4,8.9,7.9,12s4,9.5-1.5,13.9s-0.9,7.5-1.8,11.1c-0.9,3.7-4.9,2.1-4.9,2.1c-2.4,0.9,1.8,6.1-0.9,8.2s-2.4,7.9,1.2,8.8
	c3.7,0.9,8.2,5.5,7.6,8.2s8.2,11.3,9.5,10.7l13,8.3c1.5,0,0.2,9-4.5,8.5s-7.2,8-9.2,8s-5,1.8-4.8,3.5s-2,4-4.2,3.8
	s-5.2,6.2-4.5,10.8s-7,2.8-9,4.8s-7,6.7-7,6.7s-10.2,1.2-4,6.2s5.5,12.8,7.8,16.8s1.8,12.2,0,15s-4.8,7.5-4.8,11.2s-2.5,5.5-6.5,9
	s-11,0.8-13.7-3s-8-5.5-13-5s-11-3.5-21-4.8s-4.8-5-7.8-7.2s-1.7-8-0.5-9.5s-0.2-7-2-7.2s-3-4-3.2-10s-15-7.8-15-7.8
	s-10,1.2-10.5-1.2s-0.8-4.8-5.9-5.5c0,0-3.3-1.6-7.2,1.2c0,0-5.1,0.2-7.3-1.2c-2.2-1.5-2.6-0.9,2.2-6.3c0,0,0.8-0.9,5.1-2.2
	s7.7-3.4,7.2-7.8"/>
<path class="st1" d="M214.2,249.1c0,0-4.9,5.5-9.5,7.1c0,0-1.3,9,0,13.3h-10.4c0,0-8.3,4-7,6.7s5.7,4.3,5.3,7.7c-0.3,3.3,1,6-1,7
	s-5,2.7-4.5,6.7s-4.2,2-3.9,6.3s-3.7,11.7-5.5,12s-2.8,0.7-3.1,5s-6,4.7-9,2.3c-3-2.3-5-7.3-6-3s-2.7,13.7-7.3,13
	c-4.7-0.7-10-2-10-2s-16.3-7.7-18.3-15s-11.6-25.4-11.6-25.4s-0.7-6.6-9.7-2.6s-19.8-10.4-19.3-11.3s-1.7-12-3-14.7
	s-5.7-10,1.3-11.7s13-5,11.7-11s-0.3-13-10.3-9.7c0,0-8.4,11.7-12.5,7.2s-4.5-11.2-12.5-13.9s-7.5-0.4-8-2.7l-0.5-2.2
	c0,0,7.9-9.1,11.1-11.4s-0.5-13.3,0-19.2s6.9-2.7,6.9-2.7s1.4,4.6,2.7,11.4c1.4,6.9,8.7,2.7,8.7,2.7c3.7-6.4,10.1-5,10.1-5
	c0.5-5.9,17.8-8.7,17.8-8.7l29.7-0.9c6.9-2.3,7.3,5.5,4.1,9.6s0,6.9,5,4.1c5-2.7,5.5,0.9,5.5,0.9l12.4-0.5
	c16,2.3,10.5,11.9,9.6,16.5s3.2,6.9,7.3,7.8c4.1,0.9,0,7.8,5,10.5s2.3,6.9,2.3,6.9c1.4,8.2,10.1,0,10.1,0c6.1-4.9,11.1-4.1,12.8-2
	c0.5,0.7,0.3,1.9,0.1,2.7c-0.1,0.5,0,1.1,0.4,1.5C212.4,243.6,214.9,246.5,214.2,249.1z"/>
<path class="st1" d="M245.3,549.4c0,0,0.2-4.2,1.5-15.7s-4.5-14.6-12-20.9c-7.5-6.2-6.1-21-6.1-21l0.7-1.9l2.5-3.7
	c0,0,0-19.3,2-19.3s3.3-9,4-14.7s8-4,11-4s10.3-2,12-8s5.3-6,5.3-13s6.3-3.3,9-8.7c2.7-5.3,6.3-2,9,0s13.5,3,13.5,3l0.4,5.3
	c0,0,8.7,8.7,13.3,12c4.7,3.3-4,7-4,7s-1,4,5.7,3s9.3-7,17-2s4.2-1.3,12,4.3c7.7,5.7,5.4,11,5.4,11s-0.3,4.7,10.3,6.7
	c10.7,2,6.7,1,11.7,0s7,6.7,5,10.3c-2,3.7-5,6.7-2,10.7s7,7.7,10.3,6.3c3.3-1.3,3-6.7,3-6.7s4.7-4.3,8-1.7c3.3,2.7,13,2.7,15.7,2.3
	c2.7-0.3,5.7,10,8,9.7s5,2.7,9.3,0s3-5,9.3-2.7s9,2.3,10.7-0.3c1.7-2.7,1.3-5,7-1.7s7-2.3,7-2.3s7.3,2.6,7.7,8.1
	c0.2,2.8,2.8,5.2,4.8,6.8c1.2,1,2.4,1.9,3.7,2.7c0.6,0.4,1.3,0.7,2,1.1c0.5,0.2,1.6,0.3,1.8,0.9c0,0.1,0.1,0.2,0.1,0.3l-1.8,2.5
	c-0.6,0.7-2,2.2-1.6,3.2c0.6,1.6,8.8,2.5,8.8,2.5s-9.6,10.5-11.1,12.5s-4.5,16.5-8.5,14.5s-10,16-16,16s-10.5,11.5-12,18
	s0,9.5-2,12.5s-7.5,1.5-10.5,2s-7-1-8.5-4s-7.5-4-10-0.5s0.5,4-2.5,6s-5,0-7.5-3.5s-3.5-1.5-7.5-4.5s-11-3-12-1s-3,4-7.2,5.5
	s-5.3-3.5-6.3-6s2-7.5,4-9s3-6-1-5s-9-3-11-5.5s-5,0-7.5,0.5s-1.5,3.5-3,7.5s-6,6.5-9.6,5s-4.9,4-7.4,5.5s-8.5,5-10.5,3
	s-5.5-6.5-8.5-4.5s-6.5,4.5-8.2,0.5s-1.8-3.5-4.5-4.5s-2.3-9.5,0-11s-2.3-8-3.8-10s-4.5,2.5-7,3.5s-6.5-4-8-3s-9,1.5-11.5,1.5
	s1.5-5,3-7.5s-8,1-8,1s-1,2.5-5.5,4s-11.5-9-11.5-9v-1.9L245.3,549.4L245.3,549.4z"/>
<path class="st1" d="M833.2,250c0,0,27.1,6.3,30,3c2.9-3.3,5.3-7.5,6.4-14.7c1.1-7.3,6.3-2.3,11.1,0.2c4.8,2.6,8.6,6,14.8-2.5
	s11.7-8.2,26.9-3s17.6,2.6,17.9,13.5c0.3,10.9,0.2,36.4,0.2,36.4l-20.4,22.4c0,0-5.2,7.7-0.3,16.1c5,8.5,3.2,16.4,3,19
	s5.9,12.2,11.4,19.6s4,8.9,0,11.9s-0.4,5.5,6.3,6.5s8.2,4.5,5.2,6s-7.9,4.7-8.2,9.3s-15.3,4.7-15.8,9.2s0.5,19.5,1,21.5
	s9.5,14.2,3.5,15.4c-6,1.1-8-6.9-21.5-7.9s-2.5-5-30.5-3c0,0-3,5-9.5,8s-10.5,4.5-12,8s-6.2,7-5,0c1.5-9-2-12.5,1.5-16.5
	s-0.5-9.5-0.5-9.5s-6.5-11.5-1-13.5s-1-7-1-7s13.5-16,14.5-20.5s-3.5-6.2,3-9.9c6.5-3.6,7-6.6,9.5-7.1s5-8.5,3-9s-9-3.5-10.5-2
	s-3-7.8,1-10.4s10.5-6.1,10.5-6.1s5.5-9-4-8.5s-10.5-7.5-7.5-10s6-15.5,5.5-18s-7.5-7-3-9.5s-5.5-12.8-7.5-11.4s-20.5,4.9-20.5,2.9
	s-19.5-11.3-19.5-11.3s-1.5-7.5,6.5-7.5S833.2,250,833.2,250z"/>
<path class="st1" d="M657.1,269.8c0,0,3.7-4.2,7.7-1.7c4,2.4,6.7,3.5,9.2,7.6s7,3.4,8.8,1.6s6.7-4.4,7.3-1.6s6.1,4.6,8.8,3.7
	s11.9,7.3,12.5,11.9s4,4.6,7,4.6s9.5,5.8,7.9,7.9c-1.5,2.1-1.7,8.5,0.2,9.2c1.9,0.6,3.4,2.7,2.8,7c-0.6,4.3-1.2,10.7,2.4,10.9
	c3.7,0.1,10.4-2.3,10.4,3.5c0,3.1,0.4,5.2,0.3,6.5l1.2,4c0,0,1,3.2,7.8,0s10.8,0.7,10.8,0.7s6.2,2.4,10.5,0.7c4.2-1.7,13,4.2,17-2.7
	s9.5-8.2,11-6.2s16.5,7.7,16.8,9.7c0.2,2,4.5,11,11,10.8s15.8-0.5,15.5,3.2s10.2,0.8,11,0s4,4.2,4,4.2l5.5,2.6
	c6.5-3.6,7-6.6,9.5-7.1s5-8.5,3-9s-9-3.5-10.5-2s-3-7.8,1-10.4s10.5-6.1,10.5-6.1s5.5-9-4-8.5s-10.5-7.5-7.5-10s6-15.5,5.5-18
	s-7.5-7-3-9.5s-5.5-12.8-7.5-11.4s-20.5,4.9-20.5,2.9s-19.5-11.5-19.5-11.5s-1.5-7.5,6.5-7.5s5.5-10,5.5-10h-1l-7.5-0.4
	c-14-3.4-17.5,1.7-22.2,6.9c-4.8,5.2-6.2,0-6.3-5.2c0-5.2-0.4-2.9-3.8-13c-3.4-10.1,3.9-12,3.9-12c7-2.2,11-3.2,11-3.2
	c5.5-7,0-16.8,0-16.8l-16.2-13.4c0.8-3.1-3-7.5-5.1-10.1s-1.8-4.6-3.8-12.1s-7.6,1.4-13.5,5.2s-6.4-9.4-6.4-9.4s-5.1-15,1.4-25.5
	s-1.4-17.6-1.4-17.6l-5.8-6.5c0,0-2.6,6.6-6.3,4.3s-10.3-0.7-10,2.3s-3.3,8-4,5.3s-2-2.3-6.3-4s-3.3,1.7-3.3,1.7s2.3,8,1.7,9.3
	c-0.7,1.3-6,2.3-6,2.3s-0.7,8-3,8s-4.7,1-4.7,1s1.3,6-4.2,7.9s-4.8,6.4-4.8,6.4s8,3.3,3.3,6.3s-5.7,9-5.7,12.7s0.3,6.7-6,14.7
	s-7.7,23.3-7.7,23.3c8.7,4,2.7,11,0,11s-12.3-1.3-9.7,1.7c1.1,1.2-0.6,3.4-1.3,4.4c-1.5,2-3.4,3.9-5.4,5.4c-1,0.7-4.4,2.6-5.7,0.3
	c-1,1.2-2.2,2.2-3.3,3.3c-3.8,4,0,9,0,9s-3.2,3.8-6.5,7.8s-5.5,4.2-0.8,9"/>
<path class="st1" d="M1103.8,504.8l-3.2-6.1c0,0-2.7-2.1,2.8-6.4s3.7-14.3-1.2-15s-10.5-2.8-14.8,4.3c0,0-3.4,8.8-11.4,5.1
	l-12.3-2.3c0,0-6.4-4.3-5.6-7.9s-6.2-4.1-6.2-4.1s-6.9,0.4-7.3-9.6c0,0,1.4-4.4-6-10.5c-7.5-6-11-21.4-9.1-26.5
	c1.8-5.2,6.5-30.8-11.9-35.4c0,0-4.6-1.6-12.3,4c0,0-5.4,2.3-15.6-6c-10.3-8.3-17.4-15.1-17.4-15.1s-6.2-1.6-10.2-0.9
	c0,0-9.3-1.3-14.9-5.3s-13-7-13-7"/>
<path class="st1" d="M980.9,665.4c0,0,13.1,13.5,21.1,14.2c0,0,22.9,2,28.6,1s17.4-0.2,41.1-32.3l11.9-17.8c0,0,1.5-4.2-3.7-8.7
	c0,0-0.3-3.9,2.5-5.5c2.7-1.6-0.9-5.2-7-7.4s-9.6-24.6-1.6-27.8s14-5.4,23.2,1.7c0,0,5.5,2.5,7.6,0.5c2-1.9,6.5-6.8,10.4-5.3
	s5.4-6-2.4-11.9l-14.1-9.9c0,0-8.6-5.1-3.5-10.5c0,0,1.4-2.1,13.4-0.4c0,0,19.9,0.2,9.7-13.3l-7.9-15.2c0,0-14.1,2.3-15.1,1.6
	s-11.7,7.3-12.3,3.3s-4.3-9.3-15-9.7c0,0-2-4.7-4.7-5.7s-10.7,10.3-13.3,8.3s-14.7-3-15-5.3s-12-6-12.7-9.3s-10.7,0.1-12.3,4.6
	c-1.7,4.4-3.7,6.4-6,6.8s-4.3,3.3-4.3,3.3s-3.3-3.7-5.3-3s-10,5-10,5s-5.3,3-5.3,6.3s-7,5.3-2.3,8.3s8,8,5.7,12.3
	s-2.7,11.7-2.7,11.7s-6.2,2-4.6,7.3s1.3,8,5.6,5.3s4.7,0.7,5.3,3.7s3.3,7.3,5.3,10s-2.3,22.7-2.3,22.7l-11.7,10
	c0,0-11.7,7.7-11.3,11.7s-1.3,16.3,0,20C966.9,649.9,980.9,665.4,980.9,665.4z"/>
<path class="st1" d="M921.9,442.2c0,0-2.3,5.7,6.3,9.3c8.7,3.7,2.3,11.3,2.3,11.3s3.3,4.3,5.7,5.7c2.3,1.3-2.7,5,0,10.3
	s-1.4,9,0.6,10.7s3.4,6.7,5,4.3c1.7-2.3,8.3-4,9.3-1.3s3.7,3.7,3.7,6.3c0,2.7,4.3,5.7,2.3,9s-6.7,8-3,8.7s9.9,3,10.8,0
	s7.5,0.3,8.2,1.5s5.7,0,5.7,0"/>
<path class="st1" d="M921.9,442.2c0,0-2.3,5.7,6.3,9.3c8.7,3.7,2.3,11.3,2.3,11.3s3.3,4.3,5.7,5.7c2.3,1.3-2.7,5,0,10.3
	s-1.4,9,0.6,10.7s3.4,6.7,5,4.3c1.7-2.3,8.3-4,9.3-1.3s3.7,3.7,3.7,6.3c0,2.7,4.3,5.7,2.3,9s-6.7,8-3,8.7s9.9,3,10.8,0
	s7.5,0.3,8.2,1.5s5.7,0,5.7,0l5-1.2c0,0,8-4.3,10-5s5.3,3,5.3,3s2-3,4.3-3.3s4.3-2.3,6-6.8c1.7-4.4,11.7-7.9,12.3-4.6
	c0.7,3.3,12.3,7,12.7,9.3s12.3,3.3,15,5.3s10.7-9.3,13.3-8.3c2.7,1,4.7,5.7,4.7,5.7c10.7,0.3,14.3,5.7,15,9.7s11.3-4,12.3-3.3
	s15.1-1.6,15.1-1.6c1-1.7-6.3-12.1-6.3-12.1l-3.2-6.1c0,0-2.7-2.1,2.8-6.4s3.7-14.3-1.2-15s-10.5-2.8-14.8,4.3c0,0-3.4,8.8-11.4,5.1
	l-12.3-2.3c0,0-6.4-4.3-5.6-7.9s-6.2-4.1-6.2-4.1s-6.9,0.4-7.3-9.6c0,0,1.4-4.4-6-10.5c-7.5-6-11-21.4-9.1-26.5
	c1.8-5.2,6.5-30.8-11.9-35.4c0,0-4.6-1.6-12.3,4c0,0-5.4,2.3-15.6-6c-10.3-8.3-17.4-15.1-17.4-15.1s-6.2-1.6-10.2-0.9
	c0,0-9.3-1.3-14.9-5.3c-4.9-3.5-11.1-6.2-12.6-6.9c-0.1,0-0.2,0.1-0.1,0.2l2.4,3.7c2.1,4.1,0.5,5.5-2.6,7.9c-4,3-0.4,5.5,6.3,6.5
	s8.2,4.5,5.2,6s-7.9,4.7-8.2,9.3s-15.3,4.7-15.8,9.2s0.5,19.5,1,21.5s9.5,14.2,3.5,15.4C926.2,439.9,922.9,440.3,921.9,442.2z"/>
<path class="st1" d="M658.2,641.5c0.2,0.5,10,0,11.1,0c-1-6.8,0.9-14.5,6.9-18.5c3.2-2.1,3.1-6.2,2.7-9.5c-0.5-4.8,0-9.8,0.2-14.6
	c0-0.6,0-1.3,0.3-1.8c1.2-2.5,6.9-2.9,7.8-0.1c1.5,4.5,4,12,6.5,5.5c0.7-1.7,2.9-12.6,4.9-12.5c0.4,0,0.7,0.3,1,0.5
	c0.8,0.6,1.5,1.3,2.3,1.9c0.7,0.6,1.5,1.3,2.4,1.6c2.3,0.9,6.9-1.5,6.9-4.3c0,0,12.2-3.5,14.5,0s10.7,7.2,11,5.2s0.8-15.7,0.8-15.7
	s5.3-5.3,7.8-4.8s7.3,1.7,7.3,3.8c0,2.2,5.2,6.8,7.3,6c2.2-0.8,5.7-3.8,7.3-3.5c1.7,0.3,9.2-0.3,9.2-0.3s3.7,1.6,3.7,2.5
	c0,1,5.7,1,5.7,1s5.8,0.9,5.8-1s9.2-3.6,11,0s5.8,8.8,5.8,8.8v10.8c0,0,1.7,3.5,5.5,3s11.8-0.2,11.8-0.2s4.3-0.7,5.3-2.8
	c1-2.2,8.5-0.8,8.8,1s7.8,4.8,9.3,3s5-5.2,7-4.5s7.8,2,7.8,3.7s2.3,5.8,4.2,5.8c1.8,0,6.5,1.3,6.5,1.3s7.3,1.3,7.3,3.8s1,8.8,0,9
	s-4.5,2.2-5.8,2.3c-1.3,0.2-7.8,2.7-5.7,5.2c2.2,2.5,10.3,8.2,10.3,8.2s7.8,6.3,11.5,6.3s3,5,8.7,3.7s4.3,4,4.3,4l-7,8.7
	c0,0-5,1.3-4.3,6.7c0.7,5.3-3.3,8-4.3,8s-4,5.7-3.3,9S883,696,883,696l-1.3,9c0,0-5.3,1.7-3.7,5c1.7,3.3,1,16.7,1,16.7
	s3.7,5.3,6,4.3s7-1.3,7-1.3s1.7,3.1,4,4.6c2.3,1.4,6.3-0.2,6.3,3.8c0.1,4,0.1,4,0.1,4h-6.8L881,756.4l-31.1,9.7l-6.6,0.7l-35.4,15.1
	h-7.6l-0.3-6.2c0,0-3-6.7-7-4s-6.3,6.7-7,3.7s-2.3-6.7-0.3-7s8.3-2,8-5s-4.3-3.3-4.3-3.3s-3.3,0-2-4.7s5-7.7,5-7.7s5.7-3.7,3.7-5.7
	s-7-6.3-8.7-4.7s-4.2,6.7-5.6,3.7c-1.4-3,0-6.8,0-6.8l-6.4-3.2c0,0-0.7-8.7,2-7.7s6.7,0,7-1.7s3-3.7,3-8.3s0-4.7,0-4.7
	s4.3-4.7,2.7-5.7c-1.7-1-6-4-6.7-2s-3.7,5.3-6,2.7c-2.3-2.7-0.7-7.3-0.7-7.3l-9.3-1.3c-3.7-3.3-7.3-6.5-11-9.8
	c-4.2-3.8-10.6-7.1-10.9-13.4c-0.1-1,0-2.1-0.5-3c-1.3-2.3-4.8-1.3-7.4-0.7c-4.1,0.9-8.6-0.1-11.9-2.8c-1.2-1-2.4-2.3-4-2.4
	c-3.3-0.1-4.9,5-8.2,4.9c-2.8-0.1-4.8-4.2-7.8-2.6c-0.6,0.4-1.1,0.9-1.7,1.3c-1.3,0.9-3.1,0.6-4.6,1.2c-1.7,0.7-2.6,2.6-4.2,3.6
	c-2.5,1.6-5.7,0.4-8-1c-1.9-1.2-3.6-2.6-5.6-3.3c-2.3-0.8-4.8-0.8-7.1-1.4c-5.5-1.4-15.1-9.7-15.1-15.9
	C659.6,645.2,658.2,641.5,658.2,641.5z"/>
<path class="st1" d="M980.5,664.9c0,0-14-15.5-15.3-19.2s0.3-16,0-20s11.3-11.7,11.3-11.7l11.7-10c0,0,4.3-20,2.3-22.7
	s-4.7-7-5.3-10c-0.7-3-1-6.3-5.3-3.7s-4,0-5.6-5.3s4.6-7.3,4.6-7.3s0.3-7.3,2.7-11.7c2.3-4.3-1-9.3-5.7-12.3s2.3-5,2.3-8.3
	s4.4-5.8,4.4-5.8l-0.8-0.8c-0.3,0-0.5,0-0.8,0l-4.6,1.1c0,0-5,1.2-5.7,0s-7.3-4.5-8.2-1.5s-7.1,0.7-10.8,0l-5.6-2.7
	c-3.3-0.9-6.4-1.2-6.4,1.3c0,5.3-9,6.2-11.1,8.1s-2.9,5.5-0.9,8s0,8.5,0,8.5s-9-2-9,2.5s-14.5,10-17.5,11s2,8.5,0,10.5
	s-9,9-9.5,13.5s-9,5.5-11.1,4s-13.4,1.5-13.4,6s-4.5,11.5-4.5,11.5s-1.8,2.2-1.5,5.4c0.1,1.5,2.5,1.2,2.5,2c0,1.7,2.3,5.8,4.2,5.8
	s6.5,1.3,6.5,1.3s7.3,1.3,7.3,3.8s1,8.8,0,9s-4.5,2.2-5.8,2.3s-7.8,2.7-5.7,5.2c2.2,2.5,10.3,8.2,10.3,8.2s7.8,6.3,11.5,6.3
	s3,5,8.7,3.7s4.3,4,4.3,4l-7,8.7c0,0-5,1.3-4.3,6.7c0.7,5.3-3.3,8-4.3,8s-4,5.7-3.3,9s-3.3,8.3-3.3,8.3l-1.3,9c0,0-5.3,1.7-3.7,5
	c1.7,3.3,1,16.7,1,16.7s3.7,5.3,6,4.3s7-1.3,7-1.3s1.7,3.1,4,4.6c2.3,1.4,6.3-0.2,6.3,3.8c0.1,4,0.1,4,0.1,4l4.4-0.6
	c0,0,15-5.3,17.4,0c2.5,5.3,5.3,7.2,1.5,10.8s0.3,8.8,3.5,7s5.9-1.3,6.2-12.2s16.3-9.7,17.8-7.9s10.1,10.7,10.4,8.1
	c0.3-2.6,3.8-11.7-4.5-25.6c-8.4-13.9-10.1-16.3-4.9-25.8s13.8-21.5,23.4-29.2L980.5,664.9z"/>
<path class="st1" d="M624,468.8c1.2-0.6,8.2-5.5,8.8-2.7s13.1-1.6,14-0.3c0.9,1.2,6.4-1.2,6.4-2.1s9.2-5.2,11-3.4s5.5-6.1,8.2-9.2
	s-3.1-4.6-4.2-7c-1.2-2.4,6.7-5.2,7-4.4s5.2-0.5,5.5-2.9s5.5-3.7,6.4,0.3s4.9,0,5.5,0s1.8-5.5,2.7-7s2.7-4,2.7-6.4s1.8-6.1,4.6-8
	s1.8,4,3.1,7.3l-0.7,3.5v14.6c0,0,4.3,8.8,8.2,8.8c4,0,16.8-1.2,16.2,1.5s-7,6.4-5.8,7.6s7.3,5.8,7.3,5.8l-1.5,9.2l3.4,14.3
	c0,0,1.8,4.3,0,8.2c-1.8,4-10.7,9.5-10.7,9.5l-1.5,2.7v14.9c0,0,4.3,0.9,6.7-2.1c2.4-3.1,6.3,2.3,6.3,2.3s1.7,5.4,0,7.2
	s-1.6,2,0.8,3.4c2.4,1.4,3,7.2,3,7.2l4.3,3.1c0,0,0.6,3.1,0,5.2c-0.6,2.1-5.2,6.1-4,7.6s5.6,2.1,5.6,2.1l-1.6,4l2.8,2.4v4l0.9,4.4
	c-2.5-0.5-7.8,4.8-7.8,4.8s-0.5,13.7-0.8,15.7s-8.7-1.7-11-5.2s-14.5,0-14.5,0c0,2.7-4.6,5.1-6.9,4.3c-0.9-0.4-1.7-1-2.4-1.6
	c-0.8-0.6-1.5-1.3-2.3-1.9c-0.3-0.2-0.6-0.5-1-0.5c-2-0.1-4.2,10.8-4.9,12.5c-2.5,6.5-5-1-6.5-5.5c-1-2.9-6.6-2.4-7.8,0.1
	c-0.3,0.6-0.3,1.2-0.3,1.8c-0.1,4.8-0.7,9.8-0.2,14.6c0.4,3.4,0.5,7.4-2.7,9.5c-6,4-8,11.7-6.9,18.5c-1,0-10.9,0.5-11.1,0l-2.6-0.5
	c0,0-10.1-2.3-11.3,0.5c-1.2,2.7-8.7,4.9-8.7,4.9s-8-2.4-9-5.5c-0.9-3.1,3.7-7,3.7-7s3.4-9.5,4.9-11.6s-1.2-10.1-5.8-9.8
	s-4.3-2.1-7.9-2.1c-3.7,0-9.2-10.2-9.2-10.2s-10.4,4.1-12.2,3.8s0-5.2,0-5.2s-3.7,0.4-6.7,4.4s-4.1-6.7-4.1-6.7
	c-6.7-14.3-3.1-14.9-3.1-14.9c4-3.5,6.5-5.2,6.5-9s3-8.5,4.8-11.2s2.2-11,0-15s-1.5-11.8-7.8-16.8s4-6.2,4-6.2s5-4.6,7-6.7
	s9.8-0.3,9-4.8s2.2-11,4.5-10.8s4.5-2,4.2-3.8s2.8-3.5,4.8-3.5s4.5-8.5,9.2-8s6-8.5,4.5-8.5l-13-8.3"/>
<path class="st1" d="M845.6,450.6c-0.2,0-0.3,0.1-0.5,0.1c-1,0.4-0.9,1.7-1.1,2.7c-0.3,2.4-2.1,4.4-4.1,5.9
	c-2.8,2.2-9.7,7.4-13.1,4.6c-1.8-1.5-2.4-5.2-2.8-7.4c0,0-6.3-0.3-8-3.7s-7.3,2.7-7.7,5.4c-0.3,2.7-10.7,8.9-12.7,11
	s-11-4.9-12.3-7.6s-8,2.7-9.3,6.1s-5.6,0-5.6,0l-9.4-9.5c0,0-8.4-2.4-10.8-7.7c-2.3-5.4-8.1-2.7-9.1-1.3s-6.4,1.5-6.4,1.5l-2.5,0.1
	c-0.7,1-1.3,0.7-2.4,0.3c-3.3-1-11.7-0.2-14.8-0.3c-4,0-8.2-9-8.2-9v-14.9l0.5-2.6c0.1-0.3,0.4-0.4,0.6-0.3c1.7,0.9,6-8.1,6-8.1
	s5.8-0.3,8.2-2.2c2.4-1.9-2.1-6.5-2.1-6.5s-4.3-7.5-0.6-9.9s3.4-8.4,2.7-12.4s4.9-4,5.8-5c0.9-0.9-1.5-8.4-1.2-10.6s5.2-2.8,9.2-2.8
	s2.7-6.2,4.3-8.4s-2.4-6.2-5.5-5.9c-3.1,0.3-4.9-2.5-5.8-4.7c-0.9-2.2,1.2-2.5,3.7-6.2c2.4-3.7,6.4-0.3,10.1,0l3.6,2.6
	c0,0,1,3.3,7.8,0s10.8,0.7,10.8,0.7s6.2,2.5,10.5,0.7s13,4.3,17-2.8c4-7.1,9.5-8.4,11-6.3s16.5,7.8,16.8,9.9s4.5,11.3,11,11
	s15.8-0.5,15.5,3.3s10.2,0.8,11,0s4,4.3,4,4.3l2.8,1.7c0.7,0.4,0.8,1.5,0.1,2c-4.2,3.1-0.5,4.9-1.4,9c-1,4.6-14.5,20.9-14.5,20.9
	s6.5,5.1,1,7.1s1,13.8,1,13.8s3,4.9,0.5,9.7c-3,5.6,0.3,12.7-1.3,19.3c-0.1,0.3-1.7,1.9-1.9,2.1
	C845.8,450.6,845.7,450.6,845.6,450.6z"/>
<path class="st1" d="M927.1,439.3c-6,1.1-8-6.9-21.5-7.9s-2.5-5-30.5-3c0,0-3,5-9.5,8s-9.9,4.8-12,8c-1.4,2.1-4.7,4.7-4.7,4.7
	c-0.1,0.3-0.9-0.8-1.1-0.7c-0.1,0.1-1.1,0.9-1.2,0.9c-0.2,0-1.6,1.2-1.7,1.2c-1,0.4-0.9,1.7-1.1,2.7c-0.3,2.4-2.1,4.3-4.1,5.8
	c-2.8,2.1-9.7,7.2-13.1,4.5c-1.8-1.4-2.4-5.1-2.8-7.2c0,0-6.3-0.3-8-3.7c-1.7-3.3-7.3,2.7-7.7,5.3c-0.3,2.6-10.7,8.7-12.7,10.8
	s-11-4.8-12.3-7.5s-8,2.7-9.3,6s-3.6,1-3.6,1l-9.4-9.4c0,0-9.7-2-12-7.2c-2.3-5.3-8.7-3.7-9.7-2.4s-4.3,1.4-4.3,1.4l-2.1,0.2
	l-2.5,0.1c-0.6,2.7-7,6.4-5.8,7.6s7.3,5.8,7.3,5.8l-1.5,9.2l3.4,14.3c0,0,1.8,4.3,0,8.2c-1.8,4-10.7,9.5-10.7,9.5l-1.5,2.7v14.9
	c0,0,4.3,0.9,6.7-2.1c2.4-3.1,6.3,2.3,6.3,2.3s1.7,5.4,0,7.2s-1.6,2,0.8,3.4c2.4,1.4,3,7.2,3,7.2l4.3,3.1c0,0,0.6,3.1,0,5.2
	c-0.6,2.1-5.2,6.1-4,7.6s5.6,2.1,5.6,2.1l-1.6,4l2.8,2.4v4l0.9,4.4l1.2,0.3c2.5,0.5,6.1,1.4,6.1,3.6c0,2.2,5.2,6.8,7.3,6
	c2.2-0.8,5.7-3.8,7.3-3.5c1.7,0.3,9.2-0.3,9.2-0.3s3.7,1.6,3.7,2.5c0,1,5.7,1,5.7,1s5.8,0.9,5.8-1s9.2-3.6,11,0s5.8,8.8,5.8,8.8
	v10.8c0,0,1.7,3.5,5.5,3s11.8-0.2,11.8-0.2s4.3-0.7,5.3-2.8c1-2.2,8.5-0.8,8.8,1s7.8,4.8,9.3,3s5-5.2,7-4.5l5,1.2
	c-0.3-3.2,1.5-5.4,1.5-5.4s4.5-7,4.5-11.5s11.4-7.5,13.4-6s10.6,0.5,11.1-4s7.5-11.5,9.5-13.5s-3-9.5,0-10.5s17.5-6.5,17.5-11
	s9-2.5,9-2.5s2-6,0-8.5s-1.2-6.1,0.9-8c2.1-2,11.1-2.8,11.1-8.1c0-2.5,3.1-2.3,6.4-1.3l5.6,2.7c2.2,1.1,5.4-7.8,5.4-7.8
	c2-3.3-2.3-6.3-2.3-9s-2.7-3.7-3.7-6.3s-7.7-1-9.3,1.3c-1.7,2.3-3-2.7-5-4.3c-2-1.7,2-5.3-0.6-10.7c-2.7-5.3,2.3-9,0-10.3
	s-5.7-5.7-5.7-5.7s6.3-7.7-2.3-11.3s-6.3-9.3-6.3-9.3C923.7,439.6,927.1,439.3,927.1,439.3"/>
<path class="st1" d="M310.2,298.8c0,0-0.8-3.8-4.5-6.8s0.2-6,2.2-6.5s2.8-5.8,4.8-5.2s6.8,4.6,6.2,7.9c-0.5,3.3,2,6.8,5.2,6.8
	s6.2-2.5,6.2-2.5s4.8-0.8,4.5,1.2s3.8,5.5,4.5,5s4.2,3,2.2,3.8s-7,1.8-7.5,3.8s-8,7-6.5,9.2s5.2,6,4,7.5s-7.4,1.5-8.5,0
	c-1-1.5-4-6-6.3-5.5s-7.2-2-5.8-4.5s1.8-10.8,1.8-10.8L310.2,298.8z"/>
<path class="st1" d="M791.9,520.5v8.5c0,0,2.5,4.7,4.7,3s5-3,6.2-1.2s6.2,1.5,6.2,1.5s2.8,1.8,2.5,3.5s0.3,5.7,1.3,6.7
	s3.5,1,3.8,3.5s17.8,0.8,17.8,0.8s10.7-8.2,10.7-9.7s3.8-10.2,3.8-12s6.3-7.3,6.3-7.3l7.8-6.3c0,0,0.2-8.7-3.7-6.8
	c-3.8,1.9-6.7,5.8-7.3,5.8s-6.5,0.5-6.2-3s0-4.7,2-4.7s6-4.7,4.8-5.5s-2.2,0.5-4.7,0s-7-1.5-7-3.3s-5-2.5-5-5.2s-7.8-6.2-8.6-2.8
	c-0.8,3.3-7.8,10-7.8,10l-9,6.8c0,0-5.5,2.8-6.7,1.9s-2.3,1.6-2.3,3.8s-1.5,7.5-3,7.5C797.2,516,791.1,518,791.9,520.5z"/>
<path class="st1" d="M644.1,644.9l3.7,3.5c0,0-0.7,13.2-1.2,18.2s4.3,4.7,5.7,6.2c1.3,1.5,5.8,5.5,6,8s3.2,5.5,4.3,8s-3.5,7-4.3,9.5
	s2,7.3,2,7.3s2.8,1.7,2.8,4.2s3.7,3.2,3.7,3.2l-0.2,4.8c0,0,3.2,0.5,4,3.5s-5.3,7.5-5.3,7.5l0.1,13.3h13.9l1,8c0,0,5,0.5,6.5,2.5
	s-4.5,6.7-4.5,6.7l1.5,7.3c0,0,1.5,15.5-4,13.5s-12,0-12,0s0,10-2.4,13.5s-10.6-2-10.6-2s-17,2-21.5-1s-17.5-3-17.5-3v14
	c0,0-9-7-10.5-9s-5,3.5-4.5,8s-4.5,4-7,8s3,8,3,8l-7.4,13c0,0,8.9,6,9.9,8.5s-2,8.5-6.5,8.5s-11,6.8-11,6.8l19,7.2l49,32.8l30-10.8
	c0,0,2.5-10.5,4-19.5s7.5-2.5,7.5-2.5s2.5,11,2.5,16.5s-6,12.5-6,12.5s-7,5.5-2.5,11.2s10.5,0,10.5,0s7-7.1,11.5-10.1s13,1,8,6.5
	s-4.5,11-4.5,11h14.1l10,20.3l10.6-12c0,0,5.9-8.6-0.9-16.4c-6.8-7.8-12.5-8.8-10-21.4c2.4-12.6,4.6-31.2,20.5-39.4
	c0,0,7.7,3.3,9-1.7s-6.4-5-6.4-5s-3-4.7,4.7-11c7.8-6.3,15.3-9.3,14.7-20.7c-0.7-11.3,7.7-9,7.7-9s7.3-0.7,15.4-5.3"/>
<path class="st1" d="M658.2,641.5c0,0,1.3,3.7,1.3,8.3c0,6.2,9.6,14.5,15.1,15.9c2.3,0.6,4.8,0.6,7.1,1.4c2.1,0.8,3.8,2.2,5.6,3.3
	c2.3,1.4,5.5,2.6,8,1c1.6-1,2.5-2.8,4.2-3.6c1.5-0.6,3.2-0.4,4.6-1.2c0.6-0.4,1.1-1,1.7-1.3c3-1.7,5,2.5,7.8,2.6
	c3.3,0.1,4.9-5,8.2-4.9c1.6,0.1,2.8,1.3,4,2.4c3.3,2.7,7.8,3.7,11.9,2.8c2.6-0.6,6.1-1.6,7.4,0.7c0.5,0.9,0.4,2,0.5,3
	c0.3,6.4,6.7,9.6,10.9,13.4c3.7,3.3,7.3,6.5,11,9.8l9.3,1.3c0,0-1.7,4.7,0.7,7.3c2.3,2.7,5.3-0.7,6-2.7s5,1,6.7,2s-2.7,5.7-2.7,5.7
	s0,0,0,4.7s-2.7,6.7-3,8.3c-0.3,1.7-4.3,2.7-7,1.7s-2,7.7-2,7.7l6.4,3.2c0,0-1.4,3.8,0,6.8s3.9-2,5.6-3.7s6.7,2.7,8.7,4.7
	s-3.7,5.7-3.7,5.7s-3.7,3-5,7.7s2,4.7,2,4.7s4,0.3,4.3,3.3s-6,4.7-8,5s-0.3,4,0.3,7c0.7,3,3-1,7-3.7s7,4,7,4l0.3,6.2l-0.6,4.5
	c-8.2,4.5-15.4,5.3-15.4,5.3s-8.3-2.3-7.7,9c0.7,11.3-6.9,14.4-14.7,20.7s-4.7,11-4.7,11s7.7,0,6.4,5s-9,1.7-9,1.7
	c-15.8,8.2-18,26.7-20.5,39.4c-2.1,10.9,3.5,13,9.5,20.5c2.2,2.7,3.8,6.1,3.8,9.6c0,5.7-4.1,11.1-8.2,14.7c-3.9,3.5-4.8,4.1-7.4-0.5
	c-2.7-4.8-4.9-9.9-7.3-14.9c-4.7,0-9.3,0-14,0c0-4.1,1.8-8,4.5-11c5-5.5-3.5-9.5-8-6.5s-11.5,10.1-11.5,10.1s-6,5.6-10.5,0
	s2.5-11.2,2.5-11.2s6-7,6-12.5s-2.5-16.5-2.5-16.5s-6-6.5-7.5,2.5s-4,19.5-4,19.5l-30,10.8c0,0-48.7-32.5-49-32.8
	c-5.5-3.7-13.4-3.3-18.4-7.5c-1.5-1.2,9.5-6.5,10.4-6.5c4.5,0,7.5-6,6.5-8.5s-9.9-8.5-9.9-8.5l7.4-13c0,0-5.5-4-3-8s7.5-3.5,7-8
	s3-10,4.5-8s10.5,9,10.5,9v-14c0,0,13,0,17.5,3s21.5,1,21.5,1s8.2,5.5,10.6,2s2.4-13.5,2.4-13.5s6.5-2,12,0s4-13.5,4-13.5l-1.5-7.3
	c0,0,6-4.7,4.5-6.7s-6.5-2.5-6.5-2.5l-1-8h-13.8l-0.1-13.3c0,0,6.2-4.5,5.3-7.5s-4-3.5-4-3.5l0.2-4.8c0,0-3.7-0.7-3.7-3.2
	s-2.8-4.2-2.8-4.2s-2.8-4.8-2-7.3s5.5-7,4.3-9.5s-4.2-5.5-4.3-8c-0.2-2.5-4.7-6.5-6-8s-6.2-1.2-5.7-6.2s1.2-18.2,1.2-18.2l-3.7-3.5
	l0.3-3.3c1.2-2.7,11.3-0.5,11.3-0.5L658.2,641.5"/>
<path class="st1" d="M509.3,689c-3.8-1.5-8.5-8.5-8.5-12.5s1-15.5-6.8-15.5s-1.7,13.5-0.2,18s-8,5.5-13,7s-1,10.5-4,10
	s-2.5-2.5-8-0.5s-8-1.5-8-1.5c-2.5-4-8,0-11.5,0.5s-1.5,13-6,18s-9-0.5-13.5,1s-7.5,2-8,0s-13.5-4.5-17-2.5s-2.5,2-10.5-1
	s-12.5,4.5-13.5,8.5s-10.2,16-10.2,16l0.1,3.8c0,0-1.3,5.7,3.3,7.3c4.7,1.7,13,7,18.7,31.3c0,0,45,6,48.3,4.3s6.3-6.7,7.3-5
	s3.3,4,5.7,1.3c2.3-2.7,7-4.3,7-7.3s-0.3-7.7,3-8s3.7-5,3.7-5s-2.3-2.3-4-2.3s1.7-6.7,4-6.3c2.3,0.3,2-6.7,2-6.7s14.3-2.3,14.3,0.7
	s5.3,7,3.7,8.7c-1.7,1.7-5,2.3-5.2,5s-2.2,7.3,0,8.7c2.2,1.3,3.8,2.7,2.2,6.7c-1.7,4-7,4-5.3,6.3s7-1.6,6.7,4.2s-8.7,3.5-8,6.1
	c0.7,2.7,4.5,6.3,4.5,6.3v7.3l1.5,8.3c0,0,10.7,12,13.3,10.7s10.3-10.7,10.3-10.7s10.7-27.3,10.7-32.3s1.3-12,3-14.7s0-12.7,0-12.7
	s8.3-8.7,11.3-7s3.3,3.3,3.3,5.7c0,2.3-1,5.3,2,5.3s5.3,4.3,5.3,4.3s4.7,0.3,5-2.7s5.3,0,5.3,0s4,4.7,7.8,0s7.8-13.3,7.8-13.3
	s5.7-21.3-7.8-24.7c-13.5-3.3-27.8-1.7-27.8-1.7c-1.9,0.2-5.1-1.6-6.8-2.3c-2.3-1.1-4.4-2.4-6.3-4.1c-3.8-3.7-4.8-9.8-3.2-14.7
	c0.3-0.9-2.9-3.4-3.5-3.8C512.6,690.5,511,689.7,509.3,689z"/>
<path class="st1" d="M645.4,641.9l-0.3,3.3l3.7,3.5c0,0-0.7,13.2-1.2,18.2s4.3,4.7,5.7,6.2s5.8,5.5,6,8s3.2,5.5,4.3,8
	c1.2,2.5-3.5,7-4.3,9.5s2,7.3,2,7.3s2.8,1.7,2.8,4.2s3.7,3.2,3.7,3.2l-0.2,4.8c0,0,3.2,0.5,4,3.5s-5.3,7.5-5.3,7.5l0.1,13.3h13.9
	l1,8c0,0,5,0.5,6.5,2.5s-4.5,6.7-4.5,6.7l1.5,7.3c0,0,1.5,15.5-4,13.5s-12,0-12,0s0,10-2.4,13.5s-10.6-2-10.6-2s-17,2-21.5-1
	s-17.5-3-17.5-3v14c0,0-9-7-10.5-9l-4.8,3.2c0,0-3.9-0.2-5.7-2.8s4-4.8,5.5-6.4c1.5-1.7-8-2.1-12.8-1.8s-7-1-7.5-2.7
	s-10.8-1.3-10.8-1.3s-7.2,0.2-7.2-3.2c0.1-3.5-5.3-1.5-8.6-3.5c-2.5-1.5-0.3-9.3,0.9-12.9c0.3-1,1.2-1.9,2.3-2.1
	c3.1-0.8,5-2.7,5-2.7c3.8-4.7,7.8-13.3,7.8-13.3s5.7-21.3-7.8-24.7c-13.5-3.3-27.8-1.7-27.8-1.7c-1.9,0.2-5.1-1.6-6.8-2.3
	c-2.3-1.1-4.4-2.4-6.3-4.1c-3.8-3.7-4.8-9.8-3.2-14.7l0.5-4.5c2.3-4.5,0.8-12.5,6.8-12.5s8-2,10-5s7.5-11,9.5-12s8-4.5,7-10
	s-1.5-14.5,3-13.5s8.4,3,8,0c-0.5-3,6-5.5,6-5.5s-5-6.5,0-9s-6-11.5-6-11.5s-5.5-7.2,5-6.3s19.5-3.2,19.5-4.7l2.5-4.6
	c0,0,1.1,10.7,4.1,6.7c3.1-4,6.7-4.4,6.7-4.4s-1.8,4.9,0,5.2s12.2-3.8,12.2-3.8s5.5,10.2,9.2,10.2s3.4,2.4,7.9,2.1s7.3,7.6,5.8,9.8
	s-4.9,11.6-4.9,11.6s-4.6,4-3.7,7c0.9,3.1,9,5.5,9,5.5S644.2,644.6,645.4,641.9"/>
<path class="st1" d="M550.3,776.7c-0.7,0.7-1.3,1.3-1.5,1.5c-1.9,2.9-0.8,6.6,1.5,8.9c3.4,3.4,1.9,7.9,0.6,11.9s-0.3,6,3.7,9
	s3.3,5,3,9.7s0.3,2.7,2,8s7,3.3,11,4.7s3.7,5.3,4,7s-7,3-9.3,2.3s-5.7,1-5.7,3.3s16.8,9.3,16.8,9.3c1.6,0.7,3.3,1.2,5,1.5
	c0.2,0,0.5,0,0.6,0c0.7-0.3,1.5-1.6,2.2-2.2c1-0.8,2.2-1.5,3.3-2.1c1.3-0.8,3.6-2.5,5.2-2.5c4.5,0,7.5-6,6.5-8.5s-9.9-8.5-9.9-8.5
	l7.4-13c0,0-5.5-4-3-8s5.4-3.7,7-8c0.6-1.5,0.2-5,0.2-5s-3.9-0.2-5.7-2.8s4-4.8,5.5-6.4c1.5-1.7-8-2.1-12.8-1.8s-7-1-7.5-2.7
	s-10.8-1.3-10.8-1.3s-7.2,0.2-7.2-3.2c0.1-3.5-5.3-1.5-8.6-3.5C553.5,774,551.7,775.4,550.3,776.7z"/>
<path class="st1" d="M553.3,774.2c0,0-1.7-12.3,2.4-15.8"/>
<path class="st1" d="M553.8,774.8c-0.5-0.3-2.4,1.1-3.7,2.4c-0.7,0.7-1.3,1.3-1.5,1.5c-1.9,2.9-0.8,6.6,1.5,8.9
	c3.4,3.4,1.9,7.9,0.6,11.9c-1.3,4-0.3,6,3.7,9s3.3,5,3,9.7s0.3,2.7,2,8s7,3.3,11,4.7s3.7,5.3,4,7s-7,3-9.3,2.3s-5.7,1-5.7,3.3
	l-2.6-0.9c-30.4-20.7-53.1-24.3-53.1-24.3c-0.7-3.6,3.9-7.6,3.9-7.6s10.7-27.3,10.7-32.3s1.3-12,3-14.7s0-12.7,0-12.7
	s8.3-8.7,11.3-7s3.3,3.3,3.3,5.7c0,2.3-1,5.3,2,5.3s5.3,4.3,5.3,4.3s4.7,0.3,5-2.7s5.3,0,5.3,0l2,2.1c-4.1,3.5-2.4,15.8-2.4,15.8"/>
<path class="st1" d="M447.7,778.2c0,0-2.8,6,1.1,10.1s26.9,17.9,26.9,17.9l5,3.4"/>
<path class="st1" d="M484.1,810.3l-1.5-8.3v-7.4c0,0-3.8-3.7-4.5-6.3c-0.7-2.7,7.7-0.3,8-6.1s-5-1.9-6.7-4.2s3.7-2.3,5.3-6.3
	c1.7-4,0-5.3-2.2-6.7c-2.2-1.3-0.2-6,0-8.7s3.5-3.3,5.2-5s-3.7-5.7-3.7-8.7s-14.3-0.7-14.3-0.7s0.3,7-2,6.7s-5.7,6.3-4,6.3
	s4,2.3,4,2.3s-0.3,4.7-3.7,5c-3.3,0.3-3,5-3,8s-4.7,4.7-7,7.3c-2.3,2.7-4.7,0.3-5.7-1.3l-0.7,1.9c0,0-2.8,6,1.1,10.1
	s26.9,17.9,26.9,17.9l5,3.4L484.1,810.3z"/>
<path class="st1" d="M585.3,583.4l1.5-3c-4,3.5-11,0.8-13.7-3s-8-5.5-13-5s-11-3.5-21-4.8s-4.8-5-7.8-7.2s-1.7-8-0.5-9.5
	s-0.2-7-2-7.2s-3-4-3.2-10s-15-7.8-15-7.8s-10,1.2-10.5-1.2s-0.8-4.8-5.9-5.5c0,0-4.2-2.1-7.8,1.8c0,0-9.6,10.5-11.1,12.5
	s-4.5,16.5-8.5,14.5s-10,16-16,16s-10.5,11.5-12,18s0,9.5-2,12.5s-7.5,1.5-10.5,2s-7-1-8.5-4s-7.5-4-10-0.5s0.5,4-2.5,6
	s-5,0-7.5-3.5s-3.5-1.5-7.5-4.5s-11-3-12-1s-3,4-7.2,5.5s-5.3-3.5-6.3-6s2-7.5,4-9s3-6-1-5s-9-3-11-5.5s-5,0-7.5,0.5s-1.5,3.5-3,7.5
	s-6,6.5-9.6,5s-4.9,4-7.4,5.5s-8.5,5-10.5,3s-5.5-6.5-8.5-4.5s-6.5,4.5-8.2,0.5s-1.8-3.5-4.5-4.5s-2.3-9.5,0-11s-2.3-8-3.8-10
	s-4.5,2.5-7,3.5s-6.5-4-8-3s-9,1.5-11.5,1.5s1.5-5,3-7.5s-8,1-8,1s-1,2.5-5.5,4s-11.5-9-11.5-9c-6.5,0.5-12.2,21.7-12.2,21.7
	c3.3-0.7,33.3,13.3,33.3,13.3c14,8.7,18.7,10,12.6,22s4.8,6.7,4.8,6.7c10,3.3,8,2,13.8,15.3s12.2,27.3,18.4,28.7
	c6.2,1.3,13.2,2,16.5,19.3s11.3,19.3,11.3,19.3c17.3,13.3,27.4,36.7,27.4,36.7s9.2-12,10.2-16s5.5-11.5,13.5-8.5s7,3,10.5,1
	s16.5,0.5,17,2.5s3.5,1.5,8,0s9,4,13.5-1s2.5-17.5,6-18s9-4.5,11.5-0.5c0,0,2.5,3.5,8,1.5s5,0,8,0.5s-1-8.5,4-10s14.5-2.5,13-7
	s-7.7-18,0.2-18c7.8,0,6.8,11.5,6.8,15.5s5,10.5,8.5,12.5s5.9,6.5,8.2,2s0.8-12.5,6.8-12.5s8-2,10-5s7.5-11,9.5-12s8-4.5,7-10
	s-1.5-14.5,3-13.5s8.4,3,8,0s6-5.5,6-5.5s-5-6.5,0-9s-6-11.5-6-11.5s-5.5-7.2,5-6.3c10.5,0.8,19.5-3.2,19.5-4.7l2.6-3.7
	C589.4,597.2,584,585.6,585.3,583.4"/>
</svg>
